HIERARCHY
ROOT Hips
{
 OFFSET 0.000000 0.000000 0.000000
 CHANNELS 6 Xposition Yposition Zposition Yrotation Xrotation Zrotation
 JOINT Chest
 {
  OFFSET 0.000000 9.588913 -0.003946
  CHANNELS 3 Yrotation Xrotation Zrotation
  JOINT Chest2
  {
   OFFSET 0.000000 9.541882 0.008053
   CHANNELS 3 Yrotation Xrotation Zrotation
   JOINT Chest3
   {
    OFFSET 0.000000 9.501360 0.000000
    CHANNELS 3 Yrotation Xrotation Zrotation
    JOINT Chest4
    {
     OFFSET 0.000000 9.491660 0.000000
     CHANNELS 3 Yrotation Xrotation Zrotation
     JOINT Neck
     {
      OFFSET 0.000000 14.331917 0.000000
      CHANNELS 3 Yrotation Xrotation Zrotation
      JOINT Head
      {
       OFFSET 0.000000 8.884799 0.017034
       CHANNELS 3 Yrotation Xrotation Zrotation
       End Site
       {
        OFFSET 0.000000 16.896195 0.008993
       }
      }
     }
     JOINT RightCollar
     {
      OFFSET -2.923010 9.499495 0.000000
      CHANNELS 3 Yrotation Xrotation Zrotation
      JOINT RightShoulder
      {
       OFFSET -13.795216 0.000000 0.000000
       CHANNELS 3 Yrotation Xrotation Zrotation
       JOINT RightElbow
       {
        OFFSET -30.272209 0.000000 0.000000
        CHANNELS 3 Yrotation Xrotation Zrotation
        JOINT RightWrist
        {
         OFFSET -24.478199 0.000000 0.000000
         CHANNELS 3 Yrotation Xrotation Zrotation
         End Site
         {
          OFFSET -18.090752 0.000000 0.000000
         }
        }
       }
      }
     }
     JOINT LeftCollar
     {
      OFFSET 2.923010 9.499495 0.000000
      CHANNELS 3 Yrotation Xrotation Zrotation
      JOINT LeftShoulder
      {
       OFFSET 13.795216 0.000000 0.000000
       CHANNELS 3 Yrotation Xrotation Zrotation
       JOINT LeftElbow
       {
        OFFSET 30.272209 0.000000 0.000000
        CHANNELS 3 Yrotation Xrotation Zrotation
        JOINT LeftWrist
        {
         OFFSET 24.478199 0.000000 0.000000
         CHANNELS 3 Yrotation Xrotation Zrotation
         End Site
         {
          OFFSET 18.090752 0.000000 0.000000
         }
        }
       }
      }
     }
    }
   }
  }
 }
 JOINT RightHip
 {
  OFFSET -7.826875 0.019532 0.001973
  CHANNELS 3 Yrotation Xrotation Zrotation
  JOINT RightKnee
  {
   OFFSET 0.000000 -40.546152 -0.001885
   CHANNELS 3 Yrotation Xrotation Zrotation
   JOINT RightAnkle
   {
    OFFSET 0.000000 -39.417092 -0.003189
    CHANNELS 3 Yrotation Xrotation Zrotation
    JOINT RightToe
    {
     OFFSET 0.000000 -7.579396 17.243563
     CHANNELS 3 Yrotation Xrotation Zrotation
     End Site
     {
      OFFSET 0.000000 -1.500329 6.694466
     }
    }
   }
  }
 }
 JOINT LeftHip
 {
  OFFSET 7.826875 0.019532 0.001973
  CHANNELS 3 Yrotation Xrotation Zrotation
  JOINT LeftKnee
  {
   OFFSET 0.000000 -40.546152 -0.001885
   CHANNELS 3 Yrotation Xrotation Zrotation
   JOINT LeftAnkle
   {
    OFFSET 0.000000 -39.417092 -0.003189
    CHANNELS 3 Yrotation Xrotation Zrotation
    JOINT LeftToe
    {
     OFFSET 0.000000 -7.579396 17.243563
     CHANNELS 3 Yrotation Xrotation Zrotation
     End Site
     {
      OFFSET 0.000000 -1.500329 6.694466
     }
    }
   }
  }
 }
}
MOTION
Frames: 17
Frame Time: 0.008333
0.000000 87.345680 0.000000 0.000000 -5.767889 0.000000 0.000000 11.653876 0.000000 0.000000 -5.885988 0.000000 0.000000 -0.000000 0.000000 0.000000 -0.000000 0.000000 0.000000 12.528808 0.000000 0.000000 0.711711 0.000000 0.000000 -0.000000 0.000000 0.000000 -0.000000 0.000000 2.309063 -0.000000 0.000000 -2.309063 -0.000000 -0.000000 0.000000 -0.000000 0.000000 0.000000 0.000000 0.000000 -2.309063 0.000000 0.000000 2.309063 -0.000000 0.000000 0.000000 8.520374 0.000000 0.000000 1.905768 0.000000 -0.000000 -4.658254 0.000000 0.000000 -0.000000 0.000000 0.000000 8.520374 0.000000 0.000000 1.905768 0.000000 -0.000000 -4.658254 0.000000 0.000000 -0.000000 0.000000
-6.288899 89.261991 10.284619 -44.720396 -5.068066 -1.030446 0.050896 1.838438 0.495988 0.020706 1.048602 0.354712 0.026898 1.310731 0.443468 0.020706 1.048602 0.354712 2.245484 22.457149 -0.050741 4.065756 5.938136 -0.692304 -1.000816 -0.635625 -3.320820 -0.969272 2.182428 94.720423 4.840218 5.862056 1.211701 -1.500314 -2.118366 -2.985745 -0.623337 0.070289 0.750821 3.013848 2.272164 -90.594456 -1.002281 5.681960 -1.453591 -0.375046 -5.126547 2.702809 0.124563 6.630392 3.731242 0.587497 2.458960 -0.637529 -4.637130 -3.577942 -1.792643 -0.006764 -0.135508 -0.000801 3.807499 6.725106 0.225720 -1.100691 2.717669 0.161689 3.989704 -4.100796 1.200068 0.012061 0.154613 0.001729
-6.288052 89.262183 10.281877 -44.723533 -5.070134 -1.031767 0.047252 1.838139 0.494231 0.018606 1.048925 0.353867 0.024271 1.311136 0.442405 0.018606 1.048925 0.353867 2.242196 22.459209 -0.047568 4.058944 5.941774 -0.685641 -0.996337 -0.626599 -3.318838 -0.972511 2.179865 94.718099 4.856910 5.857888 1.216056 -1.495203 -2.115932 -2.989467 -0.619596 0.086145 0.744901 3.014799 2.269050 -90.595201 -1.003584 5.682611 -1.456443 -0.376415 -5.125266 2.697923 0.120958 6.632342 3.733113 0.587404 2.455642 -0.639291 -4.630615 -3.573812 -1.793166 -0.006736 -0.136247 -0.000707 3.809023 6.725044 0.231768 -1.097462 2.719506 0.160420 3.974165 -4.101528 1.200994 0.011173 0.154418 -0.000108
-6.286921 89.262350 10.278191 -44.725693 -5.070331 -1.035699 0.043297 1.837224 0.492734 0.016287 1.049044 0.353346 0.021371 1.311288 0.441748 0.016287 1.049044 0.353346 2.235828 22.460147 -0.044192 4.046535 5.943245 -0.677823 -0.993152 -0.620808 -3.315729 -0.976175 2.179018 94.716260 4.870880 5.855344 1.218435 -1.490480 -2.112419 -2.992818 -0.615630 0.102005 0.739409 3.016763 2.266802 -90.593755 -1.002141 5.685616 -1.456500 -0.377732 -5.125662 2.690833 0.116302 6.632436 3.736948 0.589205 2.451113 -0.639483 -4.625957 -3.567867 -1.794655 -0.006643 -0.137695 -0.000682 3.815468 6.722620 0.238375 -1.093212 2.720529 0.160392 3.965595 -4.102490 1.201373 0.010595 0.154941 -0.000663
-6.285233 89.262478 10.274094 -44.724392 -5.069127 -1.039645 0.038096 1.837222 0.490050 0.013222 1.049443 0.352529 0.017537 1.311790 0.440718 0.013222 1.049443 0.352529 2.226325 22.459346 -0.040861 4.028507 5.941415 -0.669302 -0.990633 -0.619812 -3.312371 -0.979700 2.179519 94.716982 4.883948 5.853916 1.219987 -1.486733 -2.110771 -2.997032 -0.607834 0.113874 0.734518 3.018225 2.265548 -90.591323 -0.997639 5.688653 -1.451761 -0.379742 -5.127150 2.682729 0.109773 6.631431 3.741343 0.592012 2.445360 -0.637130 -4.633270 -3.561900 -1.798292 -0.007321 -0.139026 -0.001016 3.823071 6.718348 0.242907 -1.089999 2.720642 0.159880 3.968014 -4.102400 1.201790 0.010798 0.155326 0.000402
-6.282819 89.262561 10.269917 -44.722179 -5.066644 -1.041731 0.032475 1.837674 0.486430 0.010048 1.049860 0.351487 0.013568 1.312314 0.439406 0.010048 1.049860 0.351487 2.214110 22.457792 -0.038881 4.005958 5.938168 -0.662516 -0.986882 -0.619774 -3.312341 -0.985216 2.180114 94.720756 4.894921 5.848525 1.222361 -1.482305 -2.107141 -3.001978 -0.599785 0.124379 0.730127 3.019394 2.263906 -90.590623 -0.991677 5.687360 -1.445622 -0.380671 -5.128963 2.678518 0.104974 6.628997 3.744491 0.593101 2.439158 -0.635358 -4.642519 -3.556784 -1.802758 -0.008714 -0.139505 -0.000524 3.829979 6.712951 0.246910 -1.091319 2.719790 0.158258 3.970777 -4.100925 1.201299 0.010875 0.155346 0.001830
-6.279561 89.262575 10.265445 -44.720115 -5.060968 -1.042482 0.026839 1.836775 0.482972 0.007008 1.049421 0.350087 0.009763 1.311768 0.437647 0.007008 1.049421 0.350087 2.199249 22.456964 -0.037852 3.978877 5.936239 -0.656716 -0.981928 -0.617556 -3.313806 -0.991560 2.181183 94.724933 4.904690 5.839653 1.226210 -1.479837 -2.100594 -3.006419 -0.594361 0.136353 0.727008 3.021877 2.261867 -90.592931 -0.985135 5.681339 -1.440702 -0.377763 -5.131603 2.679621 0.100741 6.622785 3.745508 0.593732 2.433353 -0.635870 -4.642125 -3.552053 -1.806345 -0.009722 -0.139275 0.001048 3.834684 6.703387 0.249885 -1.096093 2.720048 0.156004 3.976471 -4.099424 1.200278 0.010766 0.155211 0.003206
-6.275834 89.262556 10.260802 -44.716561 -5.053882 -1.043161 0.021724 1.834777 0.480452 0.004133 1.048286 0.348229 0.006162 1.310353 0.435316 0.004133 1.048286 0.348229 2.181793 22.457412 -0.036526 3.947015 5.936610 -0.649651 -0.976698 -0.612609 -3.313759 -0.997185 2.183000 94.726776 4.914845 5.834751 1.230765 -1.480315 -2.098440 -3.009767 -0.589770 0.148539 0.724721 3.024707 2.260905 -90.596867 -0.975077 5.672994 -1.436186 -0.375483 -5.134718 2.681347 0.094143 6.616271 3.744464 0.597014 2.425361 -0.636298 -4.634844 -3.545992 -1.808346 -0.009534 -0.138938 0.001889 3.836041 6.690161 0.250604 -1.099766 2.723779 0.153530 3.990929 -4.099151 1.199813 0.011450 0.154788 0.004891
-6.272133 89.262560 10.256498 -44.712804 -5.049530 -1.043498 0.018132 1.834243 0.478602 0.001903 1.047896 0.346083 0.003368 1.309866 0.432628 0.001903 1.047896 0.346083 2.162624 22.457792 -0.034334 3.911832 5.936791 -0.640568 -0.972385 -0.609041 -3.313010 -1.000371 2.183064 94.725859 4.921085 5.835107 1.235383 -1.481464 -2.099414 -3.009842 -0.586289 0.157590 0.722558 3.026091 2.261505 -90.600410 -0.963217 5.661684 -1.433819 -0.374289 -5.137944 2.682461 0.087692 6.612428 3.741122 0.600118 2.418068 -0.636014 -4.620377 -3.540447 -1.808016 -0.008086 -0.138490 0.001481 3.835231 6.678115 0.249616 -1.100949 2.730734 0.150729 4.009792 -4.099939 1.200297 0.012786 0.153757 0.006510
-6.268405 89.262565 10.252614 -44.712277 -5.048042 -1.042457 0.015753 1.836029 0.475978 0.000390 1.048791 0.343774 0.001471 1.310987 0.429737 0.000390 1.048791 0.343774 2.142003 22.457261 -0.031093 3.873760 5.935217 -0.629231 -0.968710 -0.609611 -3.312304 -0.997966 2.180010 94.722900 4.922748 5.835409 1.240829 -1.484151 -2.095763 -3.007821 -0.581854 0.163003 0.721079 3.026497 2.262792 -90.604237 -0.953344 5.646887 -1.433610 -0.370495 -5.143236 2.683549 0.085329 6.608274 3.737289 0.600047 2.416717 -0.636734 -4.605231 -3.538041 -1.805793 -0.006666 -0.137847 0.000387 3.835213 6.670124 0.248644 -1.103227 2.736429 0.149124 4.020047 -4.099645 1.199448 0.013158 0.152364 0.007592
-6.264494 89.262508 10.248801 -44.712669 -5.047126 -1.040863 0.012822 1.838321 0.472245 -0.001267 1.050184 0.341631 -0.000606 1.312730 0.427053 -0.001267 1.050184 0.341631 2.119434 22.456891 -0.026497 3.831808 5.933862 -0.614924 -0.964019 -0.610342 -3.310145 -0.990091 2.175683 94.716612 4.923936 5.834995 1.247041 -1.489434 -2.087843 -3.005064 -0.574927 0.168078 0.719624 3.027361 2.263847 -90.609718 -0.944025 5.630127 -1.432620 -0.367189 -5.148228 2.684926 0.086146 6.602880 3.736324 0.599629 2.417940 -0.637765 -4.606833 -3.536846 -1.804584 -0.006552 -0.137444 -0.000929 3.833602 6.665021 0.247914 -1.107188 2.737851 0.150439 4.019350 -4.097021 1.196034 0.012381 0.151368 0.008222
-6.260513 89.262344 10.244784 -44.712295 -5.045824 -1.040306 0.009659 1.840044 0.468728 -0.003023 1.051374 0.339664 -0.002804 1.314219 0.424589 -0.003023 1.051374 0.339664 2.094676 22.457531 -0.020515 3.785521 5.934299 -0.597504 -0.958338 -0.607560 -3.305921 -0.978864 2.171324 94.706676 4.924397 5.838272 1.253263 -1.496097 -2.081162 -3.001088 -0.567717 0.175830 0.717917 3.026703 2.263667 -90.617180 -0.931843 5.614899 -1.427981 -0.366852 -5.146725 2.687560 0.090012 6.597010 3.737469 0.600842 2.418557 -0.637334 -4.620086 -3.535200 -1.805637 -0.006704 -0.137231 -0.001426 3.827121 6.659630 0.246665 -1.106710 2.738699 0.153282 4.016427 -4.094722 1.193198 0.011841 0.151228 0.007934
-6.256680 89.262062 10.240601 -44.713405 -5.044864 -1.041217 0.007599 1.842005 0.465973 -0.004130 1.052601 0.337837 -0.004192 1.315753 0.422303 -0.004130 1.052601 0.337837 2.067572 22.458858 -0.013755 3.734784 5.935945 -0.578034 -0.952589 -0.603526 -3.301158 -0.965622 2.166477 94.696061 4.922052 5.843272 1.257175 -1.501196 -2.076070 -2.998016 -0.561762 0.185224 0.716029 3.023412 2.261942 -90.624296 -0.917177 5.606962 -1.421516 -0.365689 -5.139236 2.689677 0.096878 6.589804 3.737377 0.601784 2.422368 -0.635003 -4.624225 -3.534914 -1.807152 -0.005897 -0.136906 -0.000908 3.820264 6.653399 0.247740 -1.101580 2.742199 0.155264 4.007160 -4.095206 1.191046 0.011124 0.151955 0.007246
-6.252808 89.261644 10.236424 -44.714826 -5.043656 -1.042111 0.005150 1.844623 0.462018 -0.005257 1.054076 0.335991 -0.005606 1.317599 0.419992 -0.005257 1.054076 0.335991 2.039032 22.460557 -0.006398 3.681291 5.938245 -0.557096 -0.944229 -0.601863 -3.296177 -0.951264 2.162043 94.688010 4.919017 5.842991 1.257621 -1.503859 -2.070037 -2.996016 -0.556756 0.193061 0.714454 3.019878 2.260190 -90.627260 -0.902162 5.607356 -1.416238 -0.363716 -5.132946 2.688748 0.102124 6.580271 3.736808 0.600373 2.430589 -0.632077 -4.625181 -3.537296 -1.808783 -0.005835 -0.136355 -0.000577 3.817632 6.647017 0.252581 -1.099231 2.745840 0.155410 3.985142 -4.096467 1.187679 0.009494 0.152995 0.007048
-6.248768 89.261091 10.232294 -44.717170 -5.041281 -1.042204 0.001972 1.847573 0.457025 -0.006686 1.055473 0.333758 -0.007396 1.319345 0.417196 -0.006686 1.055473 0.333758 2.009767 22.463154 0.001441 3.626350 5.942201 -0.535071 -0.932557 -0.602153 -3.290270 -0.936632 2.158817 94.682608 4.918307 5.833803 1.258137 -1.505434 -2.062187 -2.995629 -0.550640 0.199207 0.713705 3.015021 2.258849 -90.626767 -0.887329 5.611574 -1.410596 -0.362328 -5.129146 2.686003 0.105398 6.568949 3.737022 0.597469 2.440009 -0.630549 -4.628165 -3.540654 -1.810170 -0.006956 -0.135534 -0.000717 3.819773 6.640304 0.255835 -1.100488 2.747609 0.154080 3.972367 -4.096779 1.186244 0.008776 0.153709 0.006969
-6.245090 89.260470 10.228294 -44.723716 -5.039887 -1.043123 0.000797 1.850939 0.453700 -0.007034 1.057087 0.331742 -0.007836 1.321364 0.414675 -0.007034 1.057087 0.331742 1.978052 22.466998 0.009152 3.567007 5.948439 -0.512590 -0.924497 -0.602983 -3.285131 -0.924657 2.156636 94.679204 4.919485 5.816176 1.259504 -1.506424 -2.052712 -2.997794 -0.545381 0.204981 0.712597 3.007562 2.257195 -90.625660 -0.875181 5.616734 -1.404718 -0.358742 -5.126397 2.684574 0.111415 6.559094 3.738049 0.595755 2.448256 -0.630473 -4.625566 -3.542561 -1.810023 -0.007765 -0.134887 -0.001151 3.828384 6.635550 0.256024 -1.102325 2.747803 0.152000 3.983295 -4.097199 1.189118 0.009756 0.154368 0.006413
-6.242091 89.259843 10.224559 -44.731707 -5.040902 -1.045832 0.001591 1.855020 0.452261 -0.006328 1.059371 0.330618 -0.006955 1.324218 0.413271 -0.006328 1.059371 0.330618 1.943087 22.471920 0.016438 3.501903 5.956644 -0.489984 -0.922415 -0.604146 -3.283338 -0.918107 2.155191 94.677944 4.920889 5.793206 1.260027 -1.507318 -2.043529 -3.001004 -0.541779 0.209913 0.710669 2.997465 2.257001 -90.624801 -0.868169 5.620638 -1.401290 -0.354454 -5.126349 2.685992 0.120424 6.553410 3.739757 0.595749 2.453513 -0.630611 -4.617518 -3.542217 -1.807793 -0.008173 -0.134544 -0.002356 3.841084 6.633396 0.259655 -1.106780 2.748765 0.149409 3.992909 -4.099596 1.192603 0.010274 0.155754 0.005093
